<svg width="73" height="30" viewBox="0 0 73 30" fill="none" xmlns="http://www.w3.org/2000/svg">
<g clip-path="url(#clip0_26_2)">
<path d="M17.3279 0C14.477 0 11.743 1.21005 9.72716 3.36396L3.14832 10.3934C1.13248 12.5473 0 15.4686 0 18.5147C0 24.8579 4.81252 30 10.7491 30C13.5999 30 16.3339 28.7899 18.3498 26.636L22.9004 21.7737C22.9005 21.7738 22.9004 21.7736 22.9004 21.7737L36.1593 7.6066C37.1221 6.57791 38.4279 6 39.7894 6C42.0689 6 44.0014 7.58741 44.6714 9.78407L48.8559 5.31296C46.947 2.11834 43.5997 0 39.7894 0C36.9386 0 34.2045 1.21005 32.1887 3.36396L14.3791 22.3934C13.4164 23.4221 12.1106 24 10.7491 24C7.9138 24 5.61538 21.5442 5.61538 18.5147C5.61538 17.0599 6.15625 15.6647 7.119 14.636L13.6978 7.6066C14.6606 6.57791 15.9663 6 17.3279 6C19.6074 6 21.5399 7.58748 22.2099 9.78421L26.3945 5.31307C24.4855 2.1184 21.1383 0 17.3279 0Z" fill="url(#paint0_linear_26_2)"/>
<path d="M36.8407 22.3934C35.8779 23.4221 34.5721 24 33.2106 24C30.9314 24 28.9991 22.413 28.3289 20.2167L24.1445 24.6877C26.0535 27.8819 29.4006 30 33.2106 30C36.0614 30 38.7955 28.7899 40.8113 26.636L58.6209 7.6066C59.5836 6.57791 60.8894 6 62.2509 6C65.0862 6 67.3846 8.45584 67.3846 11.4853C67.3846 12.9401 66.8438 14.3353 65.881 15.364L59.3022 22.3934C58.3394 23.4221 57.0337 24 55.6721 24C53.3928 24 51.4603 22.4127 50.7902 20.2162L46.6058 24.6873C48.5148 27.8818 51.8619 30 55.6721 30C58.523 30 61.257 28.7899 63.2728 26.636L69.8516 19.6066C71.8675 17.4527 73 14.5314 73 11.4853C73 5.14214 68.1875 0 62.2509 0C59.4001 0 56.6661 1.21005 54.6502 3.36396L36.8407 22.3934Z" fill="#FF3737"/>
</g>
<defs>
<linearGradient id="paint0_linear_26_2" x1="14" y1="19.5" x2="24.428" y2="30" gradientUnits="userSpaceOnUse">
<stop stop-color="#E1377D"/>
<stop offset="1" stop-color="#7B1E44"/>
</linearGradient>
<clipPath id="clip0_26_2">
<rect width="73" height="30" fill="white"/>
</clipPath>
</defs>
</svg>
