<svg width="200" height="200" version="1.1" xmlns="http://www.w3.org/2000/svg" desc="Created with imagetracer.js version 1.2.6" ><path fill="rgb(0,0,0)" stroke="rgb(0,0,0)" stroke-width="1" opacity="0" d="M 0 0 L 200 0 L 200 200 L 0 200 L 0 0 Z M 88 45 L 73 49 L 58 57 L 52 62 Q 39 73 31 89 L 25 106 L 25 119 L 24 120 L 24 129 L 27 136 L 28 135 L 29 110 L 35 94 L 43 83 Q 42 79 45 80 L 48 74 L 60 65 L 74 57 L 88 53 L 102 53 L 103 52 L 123 55 L 139 63 Q 141 62 140 65 L 143 65 L 148 69 L 149 72 L 152 73 Q 160 81 165 92 Q 164 95 167 94 L 168 100 L 172 106 Q 171 110 174 109 L 174 104 L 171 96 Q 172 91 169 92 Q 165 78 155 69 L 148 61 L 127 49 L 112 45 L 88 45 Z M 60 97 L 52 114 L 46 100 Q 45 97 41 98 L 47 118 L 52 126 L 60 108 L 68 126 L 70 123 L 78 101 Q 79 96 75 98 L 68 113 Q 69 115 66 114 Q 65 104 60 97 Z M 90 98 L 90 125 L 94 125 L 94 99 L 90 98 Z M 110 98 L 108 100 L 108 125 L 122 125 L 126 123 Q 130 120 131 115 L 131 109 L 129 103 Q 124 96 110 98 Z M 144 98 L 144 125 Q 144 126 149 125 L 152 126 L 156 125 Q 162 127 160 121 L 150 121 L 148 120 Q 146 113 150 112 L 159 112 L 159 108 L 150 108 L 148 107 Q 147 102 150 101 L 152 102 L 154 101 L 159 102 L 160 101 L 160 98 L 144 98 Z M 161 128 L 160 129 L 141 130 L 140 131 L 127 131 L 120 133 L 111 133 L 109 133 L 101 135 L 94 135 L 92 135 L 82 137 L 75 137 L 73 137 L 72 138 L 56 139 L 49 141 L 41 141 L 30 145 L 32 146 L 58 154 L 61 155 L 67 155 L 75 152 L 101 147 L 105 145 L 109 145 L 142 136 L 160 133 L 174 129 L 161 128 Z " /><path fill="rgb(0,0,0)" stroke="rgb(0,0,0)" stroke-width="1" opacity="0" d="M 113 102 Q 122 100.3 125 105.5 L 127 112.5 L 123.5 119 Q 120 122.2 113 121 L 113 102 Z " /><path fill="rgb(232,94,58)" stroke="rgb(232,94,58)" stroke-width="1" opacity="0.9647058823529412" d="M 94.5 46 L 105.5 46 L 106.5 47 L 117.5 48 L 133.5 54 Q 148 62 158 74.5 L 166 86.5 L 167 90.5 L 166 90.5 Q 159.3 76.3 147.5 67 Q 135.2 56.8 117.5 52 Q 112.7 53.3 111.5 51 L 89.5 51 L 67.5 58 L 50 70 Q 51.1 72.7 48.5 72 L 34 91.5 L 28 106.5 L 28 111.5 L 26.5 113 L 26 109.5 Q 32.2 80.2 51.5 64 L 70.5 52 L 81.5 48 L 93.5 47 L 94.5 46 Z " /><path fill="rgb(232,94,58)" stroke="rgb(232,94,58)" stroke-width="1" opacity="0.9647058823529412" d="M 159.5 129 L 167 129.5 L 66.5 154 L 58.5 154 L 32 144.5 L 48.5 141 L 72.5 139 L 80.5 137 L 89.5 137 L 98.5 135 L 107.5 135 L 117.5 133 L 147.5 131 L 148.5 130 L 158.5 130 L 159.5 129 Z " /><path fill="rgb(219,159,102)" stroke="rgb(219,159,102)" stroke-width="1" opacity="0.30196078431372547" d="M 87.5 45 L 111.5 45 L 126.5 49 L 147.5 61 L 155 68.5 Q 164.7 78 169 92 Q 172.3 90.7 171 95.5 L 174 103.5 L 174 109 Q 170.7 110.3 172 105.5 L 168 99.5 L 167 94 Q 164 95.3 165 91.5 Q 159.8 80.8 151.5 73 L 149 71.5 L 147.5 69 L 142.5 65 L 140 65 Q 141.1 62.3 138.5 63 L 122.5 55 L 102.5 52 L 101.5 53 L 87.5 53 L 73.5 57 L 59.5 65 L 48 74 L 45 80 Q 42 78.8 43 82.5 L 35 93.5 L 29 109.5 L 28 134.5 L 26.5 136 L 24 128.5 L 24 119.5 L 25 118.5 L 25 105.5 L 31 88.5 Q 38.6 72.6 51.5 62 L 57.5 57 L 72.5 49 L 87.5 45 Z M 95 46 L 94 47 L 82 48 L 71 52 L 52 64 Q 32 80 26 110 L 27 113 L 28 112 L 28 107 L 34 92 L 49 72 Q 51 73 50 70 L 68 58 L 90 51 L 112 51 Q 113 53 118 52 Q 135 57 148 67 Q 156 72 160 82 L 163 84 L 158 75 Q 148 62 134 54 L 118 48 L 107 47 L 106 46 L 95 46 Z M 165 85 L 164 88 L 166 89 L 165 85 Z " /><path fill="rgb(219,159,102)" stroke="rgb(219,159,102)" stroke-width="1" opacity="0.30196078431372547" d="M 151.5 125 L 155 125.5 L 151.5 126 L 151.5 125 Z " /><path fill="rgb(219,159,102)" stroke="rgb(219,159,102)" stroke-width="1" opacity="0.30196078431372547" d="M 160.5 128 L 174 128.5 L 167.5 130 Q 166 127.5 160.5 129 L 160.5 128 Z " /><path fill="rgb(219,159,102)" stroke="rgb(219,159,102)" stroke-width="1" opacity="0.30196078431372547" d="M 148.5 129 L 158 129.5 L 140.5 131 L 140.5 130 Q 146.8 131.8 148.5 129 Z " /><path fill="rgb(219,159,102)" stroke="rgb(219,159,102)" stroke-width="1" opacity="0.30196078431372547" d="M 163.5 130 L 166 130.5 L 159.5 133 L 142.5 136 L 142.5 135 Q 154.6 134.1 163.5 130 Z " /><path fill="rgb(219,159,102)" stroke="rgb(219,159,102)" stroke-width="1" opacity="0.30196078431372547" d="M 126.5 131 L 138 131.5 L 120.5 133 L 120.5 132 Q 125.3 133.3 126.5 131 Z " /><path fill="rgb(219,159,102)" stroke="rgb(219,159,102)" stroke-width="1" opacity="0.30196078431372547" d="M 108.5 133 L 107.5 135 L 101 134.5 L 108.5 133 Z " /><path fill="rgb(219,159,102)" stroke="rgb(219,159,102)" stroke-width="1" opacity="0.30196078431372547" d="M 110.5 133 L 117 133.5 L 110.5 134 L 110.5 133 Z " /><path fill="rgb(219,159,102)" stroke="rgb(219,159,102)" stroke-width="1" opacity="0.30196078431372547" d="M 89.5 135 L 92 135.5 Q 89.3 138.3 82.5 137 L 82.5 136 Q 88 137.5 89.5 135 Z " /><path fill="rgb(219,159,102)" stroke="rgb(219,159,102)" stroke-width="1" opacity="0.30196078431372547" d="M 93.5 135 L 98 135.5 L 93.5 136 L 93.5 135 Z " /><path fill="rgb(219,159,102)" stroke="rgb(219,159,102)" stroke-width="1" opacity="0.30196078431372547" d="M 138.5 136 L 141 136.5 L 138.5 137 L 138.5 136 Z " /><path fill="rgb(219,159,102)" stroke="rgb(219,159,102)" stroke-width="1" opacity="0.30196078431372547" d="M 72.5 137 L 73 139 L 65 138.5 L 72.5 137 Z " /><path fill="rgb(219,159,102)" stroke="rgb(219,159,102)" stroke-width="1" opacity="0.30196078431372547" d="M 74.5 137 L 80 137.5 L 74.5 138 L 74.5 137 Z " /><path fill="rgb(219,159,102)" stroke="rgb(219,159,102)" stroke-width="1" opacity="0.30196078431372547" d="M 134.5 137 L 137 137.5 L 134.5 138 L 134.5 137 Z " /><path fill="rgb(219,159,102)" stroke="rgb(219,159,102)" stroke-width="1" opacity="0.30196078431372547" d="M 55.5 139 L 64 139.5 L 49.5 141 L 49.5 140 Q 54.3 141.2 55.5 139 Z " /><path fill="rgb(219,159,102)" stroke="rgb(219,159,102)" stroke-width="1" opacity="0.30196078431372547" d="M 126.5 139 L 129 139.5 L 126.5 140 L 126.5 139 Z " /><path fill="rgb(219,159,102)" stroke="rgb(219,159,102)" stroke-width="1" opacity="0.30196078431372547" d="M 122.5 140 L 125 140.5 L 122.5 141 L 122.5 140 Z " /><path fill="rgb(219,159,102)" stroke="rgb(219,159,102)" stroke-width="1" opacity="0.30196078431372547" d="M 40.5 141 L 48 141.5 L 37.5 143 L 37.5 142 L 40.5 141 Z " /><path fill="rgb(219,159,102)" stroke="rgb(219,159,102)" stroke-width="1" opacity="0.30196078431372547" d="M 118.5 141 L 121 141.5 L 118.5 142 L 118.5 141 Z " /><path fill="rgb(219,159,102)" stroke="rgb(219,159,102)" stroke-width="1" opacity="0.30196078431372547" d="M 113.5 142 L 117 142.5 L 105.5 145 L 105.5 144 L 113.5 142 Z " /><path fill="rgb(219,159,102)" stroke="rgb(219,159,102)" stroke-width="1" opacity="0.30196078431372547" d="M 32.5 143 L 36 143.5 L 32 144.5 L 40 147.5 L 37.5 148 L 30 144.5 L 32.5 143 Z " /><path fill="rgb(219,159,102)" stroke="rgb(219,159,102)" stroke-width="1" opacity="0.30196078431372547" d="M 101.5 145 L 104 145.5 L 88.5 149 L 88.5 148 L 101.5 145 Z " /><path fill="rgb(219,159,102)" stroke="rgb(219,159,102)" stroke-width="1" opacity="0.30196078431372547" d="M 41.5 148 L 49 150.5 L 46.5 151 L 41.5 149 L 41.5 148 Z " /><path fill="rgb(219,159,102)" stroke="rgb(219,159,102)" stroke-width="1" opacity="0.30196078431372547" d="M 84.5 149 L 87 149.5 L 75.5 152 L 75.5 151 L 84.5 149 Z " /><path fill="rgb(219,159,102)" stroke="rgb(219,159,102)" stroke-width="1" opacity="0.30196078431372547" d="M 53.5 152 L 59 154.5 L 57.5 154 Q 52.7 154 53.5 152 Z " /><path fill="rgb(219,159,102)" stroke="rgb(219,159,102)" stroke-width="1" opacity="0.30196078431372547" d="M 71.5 152 L 74 152.5 L 66.5 155 L 60.5 155 L 60.5 154 Q 67.9 154.9 71.5 152 Z " /><path fill="rgb(58,108,137)" stroke="rgb(58,108,137)" stroke-width="1" opacity="0.6509803921568628" d="M 59.5 97 Q 64.7 104.1 66 114 Q 68.7 115.1 68 112.5 L 74.5 98 Q 79.3 96.3 78 100.5 L 70 122.5 L 67.5 126 L 59.5 108 L 51.5 126 L 47 117.5 L 41 98 Q 44.8 97 46 99.5 L 51.5 114 L 59.5 97 Z " /><path fill="rgb(58,108,137)" stroke="rgb(58,108,137)" stroke-width="1" opacity="0.6509803921568628" d="M 90 98 L 94 98.5 L 94 125 L 90 124.5 L 90 98 Z " /><path fill="rgb(58,108,137)" stroke="rgb(58,108,137)" stroke-width="1" opacity="0.6509803921568628" d="M 109.5 98 Q 123.8 95.8 129 102.5 L 131 108.5 L 131 114.5 Q 129.8 120.3 125.5 123 L 121.5 125 L 108 125 L 108 99.5 L 109.5 98 Z M 113 102 L 113 121 Q 120 122 124 119 L 127 113 L 125 106 Q 122 100 113 102 Z " /><path fill="rgb(58,108,137)" stroke="rgb(58,108,137)" stroke-width="1" opacity="0.6509803921568628" d="M 144 98 L 159.5 98 L 160 100.5 L 158.5 102 L 155.5 101 L 151.5 102 L 149.5 101 Q 147 102 148 106.5 L 149.5 108 L 159 108 L 159 112 L 149.5 112 L 148 113.5 L 148 121 L 160 121 L 160 125 L 144 125 L 144 98 Z " /></svg>